ply
format ascii 1.0
element vertex 49
property float x
property float y
property float z
element face 72
property list uchar int vertex_indices
end_header
0 0 0
1 0 0
2 0 0
3 0 0
4 0 0
5 0 0
6 0 0
0 1 0
1 1 0
2 1 0
3 1 0
4 1 0
5 1 0
6 1 0
0 2 0
1 2 0
2 2 0
3 2 0
4 2 0
5 2 0
6 2 0
0 3 0
1 3 0
2 3 0
3 3 0
4 3 0
5 3 0
6 3 0
0 4 0
1 4 0
2 4 0
3 4 0
4 4 0
5 4 0
6 4 0
0 5 0
1 5 0
2 5 0
3 5 0
4 5 0
5 5 0
6 5 0
0 6 0
1 6 0
2 6 0
3 6 0
4 6 0
5 6 0
6 6 0
3 0 1 8
3 0 8 7
3 1 2 8
3 2 9 8
3 2 3 10
3 2 10 9
3 3 4 10
3 4 11 10
3 4 5 12
3 4 12 11
3 5 6 12
3 6 13 12
3 7 8 14
3 8 15 14
3 8 9 16
3 8 16 15
3 9 10 16
3 10 17 16
3 10 11 18
3 10 18 17
3 11 12 18
3 12 19 18
3 12 13 20
3 12 20 19
3 14 15 22
3 14 22 21
3 15 16 22
3 16 23 22
3 16 17 24
3 16 24 23
3 17 18 24
3 18 25 24
3 18 19 26
3 18 26 25
3 19 20 26
3 20 27 26
3 21 22 28
3 22 29 28
3 22 23 30
3 22 30 29
3 23 24 30
3 24 31 30
3 24 25 32
3 24 32 31
3 25 26 32
3 26 33 32
3 26 27 34
3 26 34 33
3 28 29 36
3 28 36 35
3 29 30 36
3 30 37 36
3 30 31 38
3 30 38 37
3 31 32 38
3 32 39 38
3 32 33 40
3 32 40 39
3 33 34 40
3 34 41 40
3 35 36 42
3 36 43 42
3 36 37 44
3 36 44 43
3 37 38 44
3 38 45 44
3 38 39 46
3 38 46 45
3 39 40 46
3 40 47 46
3 40 41 48
3 40 48 47
